<svg width="1000" height="560" viewBox="0 0 1000 560" fill="none" xmlns="http://www.w3.org/2000/svg">
<path d="M0 280C0 125.36 125.36 0 280 0H1000V560H280C125.36 560 0 434.64 0 280Z" fill="#292929"/>
<path fill-rule="evenodd" clip-rule="evenodd" d="M280 542C423.594 542 540 425.594 540 282C540 138.406 423.594 22 280 22C136.406 22 20 138.406 20 282C20 425.594 136.406 542 280 542ZM280 439.172C193.196 439.172 122.828 368.804 122.828 282C122.828 195.196 193.196 124.828 280 124.828C366.804 124.828 437.172 195.196 437.172 282C437.172 368.804 366.804 439.172 280 439.172Z" fill="white"/>
<path fill-rule="evenodd" clip-rule="evenodd" d="M466.936 101.294C446.343 79.9901 422.088 62.1837 395.064 48.847C336.993 20.1883 270.317 14.2318 208.086 32.1433C145.855 50.0549 92.5473 90.545 58.5967 145.689C24.6461 200.834 12.4961 266.663 24.5246 330.294C36.5531 393.925 71.8942 450.777 123.631 489.723C175.368 528.669 239.777 546.907 304.253 540.866C368.728 534.826 428.629 504.942 472.231 457.063C492.522 434.782 508.604 409.351 520 382C532.399 352.241 539.251 320.21 539.942 287.493C539.981 285.664 540 283.833 540 282H437.172C437.172 298.729 434.504 315.2 429.392 330.838C422.541 351.794 411.3 371.253 396.205 387.827C369.847 416.77 333.637 434.835 294.661 438.487C255.685 442.139 216.749 431.114 185.474 407.57C154.198 384.027 132.834 349.66 125.563 311.194C118.292 272.729 125.636 232.934 146.16 199.599C166.683 166.264 198.908 141.787 236.527 130.96C274.147 120.132 314.453 123.733 349.557 141.057C369.66 150.978 387.229 164.991 401.256 182C411.724 194.693 420.22 209.054 426.327 224.628L522.059 187.093C521.39 185.386 520.704 183.689 520 182C507.414 151.793 489.343 124.473 466.936 101.294Z" fill="#FF6C6C"/>
<path fill-rule="evenodd" clip-rule="evenodd" d="M437.172 282C437.172 318.648 424.366 354.143 400.968 382.349C377.569 410.555 345.05 429.698 309.033 436.467C273.016 443.237 235.766 437.208 203.723 419.423C171.681 401.637 146.86 373.214 133.554 339.067C120.248 304.92 119.292 267.197 130.852 232.421C142.413 197.644 165.762 168.001 196.863 148.616C227.964 129.231 264.862 121.323 301.175 126.261C337.489 131.198 370.935 148.67 395.732 175.655L471.448 106.08C448.049 80.6164 419.995 60.2734 389.059 45.9787C365.763 35.2138 340.834 27.879 315.029 24.3705C254.958 16.2029 193.921 29.2836 142.472 61.3508C91.0236 93.418 52.3981 142.456 33.2746 199.984C14.1511 257.513 15.7319 319.916 37.7436 376.402C59.7553 432.889 100.814 479.908 153.82 509.329C206.826 538.751 268.447 548.724 328.028 537.526C387.608 526.327 441.403 494.66 480.109 448.001C496.736 427.958 510.13 405.689 520 382C533.107 350.543 540 316.582 540 282H437.172Z" fill="#FBCCCC"/>
<path fill-rule="evenodd" clip-rule="evenodd" d="M437.172 282C437.172 316.382 425.898 349.815 405.078 377.176C384.258 404.537 355.041 424.317 321.904 433.483C288.767 442.65 253.538 440.698 221.616 427.926C189.694 415.155 162.841 392.268 145.172 362.774C127.502 333.28 119.991 298.806 123.79 264.635C127.589 230.464 142.487 198.481 166.203 173.587C189.918 148.694 221.142 132.264 255.089 126.815C289.037 121.365 323.834 127.198 354.149 143.418L402.66 52.7525C402.641 52.7424 402.622 52.7322 402.603 52.722C372.16 36.4427 338.985 26.4951 305.053 23.2098C283.105 21.0849 260.84 21.7473 238.792 25.2864C182.635 34.3007 130.984 61.4803 91.7527 102.66C52.5217 143.839 27.8757 196.747 21.5918 253.274C15.3078 309.801 27.7327 366.83 56.9622 415.62C86.1917 464.409 130.613 502.269 183.419 523.396C236.225 544.524 294.502 547.753 349.319 532.589C404.136 517.426 452.468 484.706 486.909 439.444C500.431 421.673 511.519 402.354 520 382C533.12 350.512 540 316.545 540 282H437.172Z" fill="white"/>
<path fill-rule="evenodd" clip-rule="evenodd" d="M437.172 282C437.172 314.038 427.382 345.31 409.113 371.628C390.843 397.945 364.968 418.052 334.952 429.253C304.937 440.454 272.215 442.215 241.171 434.301C210.127 426.386 182.243 409.173 161.254 384.968C140.265 360.764 127.175 330.723 123.736 298.871C120.297 267.018 126.674 234.876 142.013 206.749C157.352 178.622 180.92 155.855 209.56 141.497C238.188 127.144 270.517 121.879 302.219 126.406C302.232 126.408 302.245 126.41 302.258 126.412L316.819 24.6204C316.807 24.6187 316.795 24.6169 316.783 24.6152C282.635 19.7352 248.046 21.7232 214.995 30.2576C197.279 34.8321 180.004 41.2875 163.475 49.5741C116.098 73.3261 77.1114 110.989 51.7373 157.517C26.3632 204.045 15.8138 257.217 21.5023 309.908C27.1909 362.599 48.8457 412.293 83.5659 452.334C118.286 492.374 164.413 520.848 215.768 533.941C267.122 547.034 321.252 544.121 370.904 525.591C420.557 507.062 463.361 473.801 493.583 430.265C504.127 415.076 512.963 398.89 520 382C533.134 350.479 540 316.508 540 282H437.172Z" fill="#E9EFFF"/>
<path fill-rule="evenodd" clip-rule="evenodd" d="M437.172 282C437.172 311.999 428.587 341.372 412.43 366.649C396.272 391.926 373.219 412.051 345.992 424.647C318.765 437.243 288.501 441.783 258.777 437.733C229.052 433.682 201.107 421.208 178.244 401.786C155.38 382.364 138.552 356.804 129.748 328.125C120.944 299.447 120.532 268.847 128.56 239.942C136.587 211.036 152.72 185.032 175.051 165.001C197.375 144.977 224.96 131.757 254.552 126.902C254.563 126.9 254.575 126.898 254.586 126.896L237.959 25.4214C203.938 30.9958 171.519 43.2533 142.509 61.3276C129.76 69.2711 117.669 78.3381 106.39 88.4552C69.4481 121.592 42.7612 164.609 29.4816 212.426C16.202 260.243 16.8844 310.861 31.4483 358.302C46.0121 405.743 73.849 448.026 111.671 480.155C149.493 512.284 195.72 532.917 244.892 539.619C294.063 546.32 344.126 538.808 389.166 517.972C434.206 497.135 472.342 463.844 499.07 422.03C507.23 409.264 514.223 395.866 520 382C533.146 350.45 540 316.475 540 282H437.172Z" fill="#FBCCCC"/>
<path fill-rule="evenodd" clip-rule="evenodd" d="M437.172 282C437.172 307.569 430.934 332.752 418.999 355.365C407.064 377.978 389.792 397.337 368.681 411.764C347.571 426.191 323.26 435.25 297.856 438.155C272.452 441.06 246.724 437.723 222.901 428.434C199.079 419.145 177.883 404.184 161.151 384.85C144.419 365.515 132.657 342.39 126.885 317.481C121.113 292.572 121.505 266.63 128.027 241.907C134.55 217.184 147.006 194.425 164.314 175.605L88.6283 105.998C65.3391 131.32 47.3611 160.954 35.6559 193.141C32.9703 200.525 30.615 208.045 28.6014 215.677C17.8118 256.575 17.1631 299.488 26.7115 340.694C36.26 381.899 55.7172 420.153 83.3956 452.137C111.074 484.122 146.138 508.87 185.545 524.236C224.953 539.602 267.514 545.122 309.538 540.317C351.562 535.511 391.778 520.526 426.7 496.66C461.622 472.795 490.193 440.77 509.937 403.363C513.621 396.382 516.978 389.254 520 382C533.173 350.386 540 316.404 540 282H437.172Z" fill="white"/>
<path fill-rule="evenodd" clip-rule="evenodd" d="M437.172 282C437.172 302.64 433.107 323.078 425.208 342.147C417.31 361.216 405.732 378.543 391.138 393.138C376.543 407.732 359.216 419.31 340.147 427.208C321.078 435.107 300.64 439.172 280 439.172C259.36 439.172 238.922 435.107 219.853 427.208C200.784 419.31 183.457 407.732 168.862 393.138C154.268 378.543 142.69 361.216 134.792 342.147C126.893 323.078 122.828 302.64 122.828 282L20 282C20 316.144 26.7251 349.953 39.7913 381.498C39.8607 381.665 39.9303 381.833 40 382C53.0611 413.347 72.1372 441.833 96.1522 465.848C120.295 489.991 148.958 509.142 180.502 522.209C212.047 535.275 245.856 542 280 542C314.144 542 347.953 535.275 379.498 522.209C411.042 509.142 439.705 489.991 463.848 465.848C487.863 441.833 506.939 413.347 520 382C520.07 381.833 520.139 381.665 520.209 381.498C533.275 349.953 540 316.144 540 282H437.172Z" fill="#FF6C6C"/>
<path fill-rule="evenodd" clip-rule="evenodd" d="M437.172 282C437.172 320.107 423.327 356.917 398.214 385.579C373.1 414.241 338.429 432.802 300.652 437.809C262.875 442.817 224.565 433.928 192.852 412.799C161.139 391.669 138.183 359.738 128.255 322.946L28.978 349.734C28.9808 349.745 28.9836 349.755 28.9864 349.766C38.0029 383.164 53.5098 414.141 74.3391 441.071C91.459 463.206 112.174 482.607 135.837 498.372C188.298 533.326 251.671 548.029 314.163 539.746C376.656 531.463 434.01 500.757 475.554 453.344C494.292 431.958 509.238 407.83 520 382C533.098 350.563 540 316.605 540 282H437.172Z" fill="#E9EFFF"/>
<path fill-rule="evenodd" clip-rule="evenodd" d="M437.172 282C437.172 316.836 425.599 350.685 404.27 378.229C382.941 405.773 353.067 425.45 319.339 434.169C285.612 442.889 249.943 440.156 217.938 426.4C185.932 412.644 159.404 388.645 142.52 358.174L52.5763 408.01C69.3223 438.233 91.8041 464.607 118.536 485.787C136.388 499.932 156.135 511.76 177.335 520.872C230.279 543.627 289.283 548.148 345.076 533.724C400.869 519.3 450.29 486.75 485.572 441.186C499.7 422.941 511.24 403.024 520 382C533.117 350.518 540 316.552 540 282H437.172Z" fill="white"/>
<path fill-rule="evenodd" clip-rule="evenodd" d="M437.172 282C437.172 309.164 430.132 335.864 416.739 359.496C403.346 383.128 384.056 402.886 360.752 416.842C337.447 430.798 310.924 438.476 283.768 439.127C256.637 439.778 229.799 433.392 205.869 420.592C205.848 420.58 205.826 420.569 205.805 420.557L157.264 511.207C187.615 527.46 220.798 537.473 254.861 540.782C265.255 541.792 275.731 542.177 286.233 541.925C331.156 540.848 375.032 528.147 413.582 505.06C452.133 481.973 484.043 449.29 506.198 410.196C511.378 401.057 515.984 391.639 520 382C533.163 350.409 540 316.43 540 282H437.172Z" fill="#E9EFFF"/>
<path fill-rule="evenodd" clip-rule="evenodd" d="M437.172 282C437.172 303.29 432.847 324.358 424.459 343.925C416.071 363.493 403.795 381.153 388.375 395.833C372.956 410.513 354.715 421.907 334.759 429.325C314.825 436.734 293.594 440.021 272.353 438.986C272.33 438.985 272.307 438.984 272.284 438.983L267.237 541.687C301.531 543.372 335.81 538.248 368.098 526.62C368.928 526.321 369.757 526.017 370.585 525.71C403.597 513.439 433.771 494.59 459.279 470.306C484.786 446.022 505.093 416.809 518.969 384.439C519.317 383.628 519.661 382.815 520 382C533.199 350.322 540 316.335 540 282H437.172Z" fill="#FF6C6C"/>
<path fill-rule="evenodd" clip-rule="evenodd" d="M437.172 282C437.172 313.59 427.653 344.447 409.856 370.547C392.067 396.635 366.833 416.76 337.442 428.299C337.429 428.305 337.416 428.31 337.403 428.315L374.958 524.039C407.075 511.439 436.193 492.642 460.745 468.899C473.382 456.679 484.809 443.148 494.813 428.477C504.816 413.806 513.239 398.227 520 382C533.136 350.472 540 316.5 540 282H437.172Z" fill="white"/>
<path fill-rule="evenodd" clip-rule="evenodd" d="M437.172 282C437.172 307.564 430.937 332.742 419.006 355.351C407.084 377.944 389.834 397.291 368.751 411.716C368.737 411.726 368.722 411.736 368.708 411.746L426.744 496.63C455.145 477.213 479.343 452.398 498.006 423.68C502.283 417.099 506.27 410.313 509.949 403.339C513.629 396.366 516.981 389.245 520 382C533.173 350.385 540 316.404 540 282H437.172Z" fill="#FBCCCC"/>
<path fill-rule="evenodd" clip-rule="evenodd" d="M437.172 282C437.172 305.478 431.912 328.659 421.779 349.838L514.535 394.22C516.464 390.189 518.286 386.114 520 382C531.471 354.469 538.121 325.167 539.656 295.381C539.885 290.93 540 286.468 540 282H437.172Z" fill="#FF6C6C"/>
<path d="M167.555 85.1854L178.889 78.9004L179.665 80.2996L171.815 84.6526L181.504 83.6159L182.133 84.7493L170.799 91.0343L170.03 89.6491L178.006 85.2263L168.207 86.3608L167.555 85.1854Z" fill="#292929"/>
<path d="M172.21 93.5799L183.544 87.2949L184.421 88.876L179.524 91.5918L181.137 94.5022L186.035 91.7865L186.912 93.3676L175.578 99.6527L174.701 98.0715L180.004 95.1307L178.39 92.2203L173.087 95.1611L172.21 93.5799Z" fill="#292929"/>
<path d="M174.526 102.606L177.716 100.837L178.003 101.355C178.222 101.441 178.466 101.507 178.735 101.553C179.01 101.608 179.332 101.618 179.703 101.583C180.089 101.552 180.55 101.461 181.088 101.309C181.635 101.152 182.296 100.914 183.07 100.594C183.85 100.284 184.77 99.8649 185.831 99.3374L189.29 97.657L191.921 102.401L181.72 108.057L182.325 109.148L179.135 110.918L178.46 109.7L180.447 108.434L177.328 102.809L175.201 103.823L174.526 102.606ZM178.818 102.824L180.851 106.49L189.876 101.485L188.86 99.6521L186.237 100.96C185.209 101.481 184.326 101.892 183.59 102.19C182.867 102.493 182.251 102.713 181.741 102.849C181.246 102.99 180.82 103.068 180.462 103.083C180.119 103.103 179.82 103.079 179.564 103.014C179.313 102.958 179.065 102.894 178.818 102.824Z" fill="#292929"/>
<path d="M182.278 111.735L193.612 105.45L194.388 106.85L186.538 111.202L196.227 110.166L196.855 111.299L185.521 117.584L184.753 116.199L192.729 111.776L182.93 112.911L182.278 111.735Z" fill="#292929"/>
<path d="M268.483 50.0935L281.445 50.0701L281.481 51.8457L271.018 54.3469L281.574 56.4368L281.61 58.1964L268.658 58.6998L268.628 57.2441L278.031 56.9089L268.581 54.9085L268.56 53.8848L277.922 51.518L268.513 51.5652L268.483 50.0935Z" fill="#292929"/>
<path d="M268.716 61.5657L281.673 61.3022L281.775 66.3252L280.432 66.3525L280.366 63.1372L276.079 63.2243L276.132 65.8318L274.852 65.8578L274.799 63.2504L270.048 63.3469L270.114 66.5943L268.819 66.6206L268.716 61.5657Z" fill="#292929"/>
<path d="M268.895 70.3835L280.509 70.1474L280.464 67.9558L281.808 67.9285L281.933 74.0552L280.589 74.0826L280.546 71.955L268.932 72.1911L268.895 70.3835Z" fill="#292929"/>
<path d="M269.004 75.7437L282.017 78.2317L282.053 79.9754L269.152 83.0062L269.117 81.2946L272.368 80.6364L272.315 77.9969L269.039 77.4394L269.004 75.7437ZM273.615 78.2105L273.659 80.3701L279.476 79.1636L273.615 78.2105Z" fill="#292929"/>
<path d="M269.177 84.225L270.52 84.1977C270.514 84.4325 270.535 84.6455 270.581 84.8366C270.628 85.0383 270.733 85.2122 270.896 85.3583C271.059 85.515 271.313 85.6485 271.656 85.7589C272 85.8693 272.466 85.9612 273.054 86.0345C273.642 86.1079 274.385 86.1675 275.282 86.2133L282.186 86.505L282.301 92.1999L269.344 92.4633L269.307 90.6557L280.921 90.4196L280.873 88.084L275.316 87.8929C274.483 87.8565 273.73 87.8025 273.057 87.7308C272.394 87.659 271.81 87.5428 271.305 87.3824C270.811 87.2324 270.396 87.0221 270.06 86.7515C269.735 86.4914 269.499 86.1548 269.351 85.7417C269.204 85.3286 269.146 84.8231 269.177 84.225Z" fill="#292929"/>
<path d="M269.383 94.3998L270.727 94.3724C270.721 94.6073 270.742 94.8202 270.788 95.0113C270.835 95.2131 270.94 95.387 271.103 95.533C271.266 95.6898 271.519 95.8233 271.863 95.9337C272.207 96.044 272.673 96.1359 273.261 96.2093C273.849 96.2827 274.592 96.3423 275.489 96.3881L282.392 96.6798L282.508 102.375L269.551 102.638L269.514 100.83L281.128 100.594L281.08 98.2588L275.523 98.0677C274.69 98.0313 273.937 97.9773 273.263 97.9056C272.601 97.8337 272.017 97.7176 271.512 97.5571C271.018 97.4072 270.603 97.1969 270.267 96.9263C269.942 96.6662 269.705 96.3296 269.558 95.9165C269.411 95.5034 269.353 94.9978 269.383 94.3998Z" fill="#292929"/>
<path d="M342.573 104.109L330.343 99.8224L332.703 93.0882L344.934 97.3751L344.336 99.0814L333.328 95.2231L332.164 98.5449L343.171 102.403L342.573 104.109Z" fill="#292929"/>
<path d="M345.66 95.3025L334.34 88.4185L334.917 86.7726L348.063 88.4474L347.497 90.0631L344.221 89.5421L343.348 92.0334L346.221 93.702L345.66 95.3025ZM342.204 91.3783L342.918 89.3399L337.047 88.4348L342.204 91.3783Z" fill="#292929"/>
<path d="M348.789 86.376L336.559 82.089L337.157 80.3828L342.442 82.2352L343.543 79.0946L338.258 77.2422L338.856 75.5359L351.086 79.8229L350.488 81.5291L344.766 79.5233L343.665 82.6639L349.387 84.6698L348.789 86.376Z" fill="#292929"/>
<path d="M352.047 77.0817L339.817 72.7947L340.415 71.0885L345.85 72.9938L346.073 72.3596L341.404 68.2649L342.003 66.5587L346.969 71.0122L354.339 70.5437L353.741 72.2499L346.909 72.6356L346.681 73.2849L352.645 75.3755L352.047 77.0817Z" fill="#292929"/>
<path d="M400.742 138.368L397.943 136.029L398.323 135.574C398.325 135.34 398.298 135.088 398.244 134.82C398.197 134.544 398.09 134.24 397.924 133.906C397.757 133.558 397.505 133.16 397.17 132.713C396.826 132.259 396.366 131.728 395.79 131.121C395.22 130.505 394.498 129.798 393.623 128.997L390.811 126.375L394.29 122.213L403.238 129.695L404.039 128.737L406.838 131.077L405.945 132.145L404.048 130.747L399.923 135.681L401.635 137.3L400.742 138.368ZM399.4 134.286L402.089 131.069L394.171 124.45L392.827 126.058L394.991 128.034C395.848 128.806 396.548 129.482 397.092 130.062C397.635 130.627 398.061 131.122 398.372 131.549C398.682 131.961 398.908 132.33 399.051 132.658C399.192 132.971 399.278 133.259 399.309 133.521C399.347 133.775 399.378 134.03 399.4 134.286Z" fill="#292929"/>
<path d="M405.864 128.575L402.711 122.018L396.116 120.029L397.234 118.691L403.594 120.838L403.656 120.764L398.856 116.751L399.841 115.573L404.641 119.585L404.713 119.5L401.463 113.633L402.591 112.283L405.708 118.434L412.729 120.362L411.59 121.725L404.895 119.631L404.813 119.729L409.784 123.885L408.799 125.064L403.827 120.908L403.756 120.993L406.993 127.224L405.864 128.575Z" fill="#292929"/>
<path d="M413.517 119.42L405.339 108.996L406.458 107.658L418.176 113.847L417.078 115.16L414.195 113.521L412.501 115.546L414.605 118.119L413.517 119.42ZM411.661 114.531L413.046 112.874L407.868 109.963L411.661 114.531Z" fill="#292929"/>
<path d="M421.511 110.082C421.06 110.622 420.581 110.987 420.076 111.176C419.57 111.365 419.05 111.389 418.514 111.247C417.979 111.106 417.45 110.816 416.926 110.378L416.595 110.101L417.682 108.8C417.74 108.848 417.801 108.899 417.867 108.954C417.924 109.002 417.98 109.042 418.036 109.075C418.476 109.414 418.892 109.623 419.285 109.702C419.678 109.78 420.056 109.603 420.419 109.169C420.686 108.85 420.814 108.547 420.803 108.26C420.785 107.966 420.664 107.678 420.442 107.395C420.212 107.105 419.916 106.81 419.556 106.509C419.041 106.078 418.515 105.833 417.98 105.775C417.445 105.716 416.89 105.989 416.315 106.594C416.28 106.619 416.241 106.657 416.2 106.706C416.166 106.747 416.129 106.792 416.088 106.841C416.053 106.882 416.019 106.923 415.985 106.964L414.929 106.081C414.957 106.049 414.987 106.012 415.022 105.971C415.063 105.922 415.1 105.877 415.134 105.836C415.167 105.78 415.194 105.74 415.215 105.715C415.7 105.051 415.899 104.48 415.811 104.003C415.722 103.512 415.415 103.047 414.892 102.609C414.442 102.233 414.006 102.022 413.586 101.976C413.164 101.915 412.765 102.11 412.388 102.56C412.026 102.994 411.905 103.421 412.026 103.842C412.139 104.256 412.402 104.664 412.817 105.066C412.866 105.107 412.919 105.151 412.976 105.199C413.025 105.24 413.079 105.285 413.136 105.333L412.038 106.646L411.706 106.369C411.174 105.924 410.802 105.447 410.59 104.935C410.378 104.424 410.327 103.895 410.437 103.348C410.547 102.8 410.828 102.256 411.279 101.716C411.738 101.168 412.231 100.794 412.758 100.596C413.284 100.382 413.822 100.338 414.371 100.463C414.918 100.573 415.458 100.851 415.99 101.295C416.587 101.795 416.965 102.333 417.122 102.909C417.286 103.478 417.249 104.03 417.009 104.567C417.353 104.354 417.721 104.23 418.112 104.195C418.502 104.161 418.913 104.226 419.345 104.392C419.768 104.551 420.204 104.819 420.654 105.195C421.244 105.688 421.691 106.2 421.996 106.734C422.293 107.26 422.409 107.802 422.346 108.361C422.282 108.919 422.004 109.493 421.511 110.082Z" fill="#292929"/>
<path d="M445.404 186.581L444.209 184.763C444.17 184.801 444.105 184.857 444.013 184.93C443.921 185.004 443.839 185.064 443.767 185.111C443.224 185.468 442.705 185.688 442.21 185.771C441.724 185.848 441.246 185.741 440.774 185.451C440.303 185.161 439.827 184.651 439.346 183.92L437.571 181.219C437.096 180.497 436.815 179.865 436.726 179.323C436.638 178.781 436.709 178.307 436.939 177.9C437.173 177.479 437.535 177.107 438.025 176.784C438.15 176.702 438.277 176.625 438.408 176.552C438.533 176.47 438.629 176.413 438.698 176.38L437.326 174.295L438.837 173.302L440.208 175.387C440.292 175.32 440.4 175.242 440.534 175.154C440.662 175.057 440.775 174.977 440.873 174.912C441.381 174.578 441.87 174.39 442.341 174.349C442.814 174.293 443.281 174.42 443.74 174.731C444.203 175.027 444.669 175.531 445.138 176.244L446.913 178.945C447.388 179.666 447.669 180.298 447.758 180.84C447.846 181.382 447.784 181.851 447.571 182.246C447.353 182.632 447.034 182.963 446.615 183.238C446.472 183.332 446.327 183.421 446.178 183.506C446.03 183.591 445.877 183.679 445.72 183.77L446.915 185.588L445.404 186.581ZM443.263 184.14C443.335 184.093 443.406 184.046 443.477 183.999C443.543 183.944 443.59 183.899 443.62 183.867L439.295 177.29C439.209 177.333 439.126 177.382 439.046 177.434C438.96 177.478 438.881 177.524 438.81 177.57C438.516 177.764 438.322 177.974 438.229 178.201C438.136 178.429 438.147 178.708 438.263 179.04C438.38 179.372 438.608 179.797 438.948 180.314L440.723 183.014C441.063 183.531 441.358 183.912 441.608 184.156C441.858 184.4 442.107 184.517 442.356 184.507C442.604 184.497 442.907 184.374 443.263 184.14ZM445.643 182.575C445.964 182.364 446.174 182.15 446.273 181.931C446.372 181.713 446.359 181.441 446.234 181.115C446.109 180.788 445.876 180.367 445.536 179.85L443.761 177.149C443.421 176.632 443.126 176.252 442.876 176.008C442.626 175.763 442.378 175.639 442.133 175.635C441.887 175.63 441.595 175.739 441.256 175.962C441.176 176.015 441.099 176.072 441.025 176.133C440.944 176.186 440.871 176.24 440.806 176.296L445.131 182.874C445.199 182.842 445.281 182.801 445.376 182.751C445.465 182.693 445.554 182.634 445.643 182.575Z" fill="white"/>
<path d="M454.714 179.943C453.983 180.423 453.306 180.665 452.682 180.667C452.057 180.669 451.479 180.468 450.946 180.065C450.407 179.654 449.903 179.091 449.434 178.378L446.736 174.274C446.267 173.561 445.959 172.889 445.812 172.258C445.669 171.612 445.723 171.015 445.975 170.466C446.23 169.903 446.723 169.381 447.453 168.9C448.184 168.42 448.854 168.177 449.464 168.172C450.073 168.167 450.639 168.357 451.16 168.742C451.69 169.121 452.19 169.667 452.658 170.38L455.366 174.498C455.829 175.202 456.135 175.881 456.285 176.536C456.443 177.185 456.405 177.797 456.171 178.372C455.931 178.939 455.445 179.462 454.714 179.943ZM453.932 178.753C454.333 178.489 454.583 178.21 454.683 177.915C454.776 177.611 454.762 177.288 454.64 176.947C454.512 176.597 454.316 176.222 454.053 175.821L450.932 171.075C450.668 170.673 450.407 170.354 450.148 170.115C449.884 169.868 449.599 169.736 449.294 169.719C448.984 169.694 448.628 169.813 448.227 170.077C447.826 170.34 447.571 170.623 447.463 170.924C447.357 171.21 447.366 171.524 447.488 171.865C447.604 172.197 447.794 172.563 448.058 172.964L451.178 177.71C451.442 178.112 451.709 178.44 451.98 178.696C452.244 178.944 452.535 179.084 452.851 179.119C453.171 179.139 453.531 179.017 453.932 178.753Z" fill="white"/>
<path d="M458.994 176.957L458.256 175.833C458.458 175.713 458.627 175.583 458.764 175.442C458.91 175.295 459.002 175.113 459.038 174.898C459.084 174.676 459.062 174.39 458.973 174.041C458.883 173.691 458.713 173.248 458.462 172.711C458.211 172.174 457.866 171.513 457.427 170.729L454 164.73L458.759 161.601L465.879 172.43L464.369 173.423L457.987 163.717L456.035 165L458.831 169.806C459.244 170.531 459.599 171.197 459.897 171.806C460.189 172.405 460.401 172.961 460.534 173.474C460.67 173.972 460.713 174.435 460.663 174.864C460.616 175.278 460.457 175.657 460.185 176.001C459.914 176.346 459.517 176.664 458.994 176.957Z" fill="white"/>
<path d="M468.313 170.829L461.193 160L462.704 159.007L465.868 163.82L466.43 163.451L465.204 157.363L466.715 156.37L467.96 162.924L474.102 167.023L472.591 168.016L466.927 164.177L466.352 164.555L469.824 169.836L468.313 170.829Z" fill="white"/>
<path d="M465.643 253.661L463.839 240.828L469.353 240.052L469.535 241.352L465.812 241.875L466.38 245.915L466.776 245.86C467.706 245.729 468.487 245.732 469.12 245.869C469.763 245.994 470.27 246.306 470.641 246.803C471.023 247.298 471.283 248.037 471.421 249.02C471.515 249.685 471.516 250.267 471.424 250.764C471.331 251.251 471.137 251.672 470.842 252.026C470.558 252.378 470.173 252.664 469.686 252.883C469.209 253.09 468.622 253.243 467.925 253.341L465.643 253.661ZM467.253 252.126L467.76 252.055C468.288 251.981 468.713 251.862 469.035 251.698C469.366 251.522 469.585 251.244 469.693 250.862C469.812 250.479 469.822 249.939 469.724 249.242C469.601 248.365 469.344 247.766 468.954 247.444C468.575 247.12 467.931 247.022 467.022 247.15L466.563 247.215L467.253 252.126Z" fill="#292929"/>
<path d="M473.378 252.574L473.19 251.243C473.424 251.221 473.633 251.175 473.818 251.106C474.012 251.036 474.172 250.911 474.298 250.732C474.434 250.551 474.537 250.284 474.605 249.929C474.674 249.575 474.71 249.101 474.713 248.508C474.715 247.916 474.686 247.171 474.625 246.275L474.092 239.386L479.733 238.593L481.537 251.427L479.747 251.678L478.13 240.176L475.816 240.501L476.288 246.041C476.351 246.872 476.387 247.627 476.396 248.304C476.404 248.971 476.358 249.564 476.259 250.085C476.169 250.593 476.01 251.03 475.781 251.396C475.561 251.75 475.255 252.024 474.863 252.22C474.47 252.415 473.975 252.533 473.378 252.574Z" fill="#292929"/>
<path d="M490.827 250.266C490.003 250.382 489.33 250.304 488.807 250.033C488.283 249.751 487.876 249.308 487.586 248.702C487.307 248.095 487.108 247.369 486.989 246.524L486.733 244.702L485.275 244.907L486.101 250.785L484.422 251.021L482.617 238.187L484.297 237.951L485.083 243.544L486.541 243.339L486.316 241.739C486.196 240.883 486.188 240.136 486.292 239.497C486.406 238.856 486.678 238.338 487.107 237.944C487.537 237.55 488.163 237.295 488.987 237.179C489.811 237.063 490.479 237.141 490.991 237.414C491.513 237.675 491.917 238.097 492.204 238.682C492.49 239.266 492.693 239.981 492.812 240.826L493.485 245.611C493.602 246.445 493.605 247.193 493.493 247.855C493.382 248.517 493.113 249.056 492.687 249.471C492.271 249.885 491.651 250.15 490.827 250.266ZM490.629 248.856C491.083 248.792 491.413 248.649 491.619 248.426C491.823 248.193 491.943 247.896 491.978 247.535C492.012 247.164 491.996 246.741 491.929 246.266L491.138 240.641C491.071 240.166 490.972 239.765 490.84 239.439C490.706 239.102 490.511 238.86 490.253 238.714C489.994 238.556 489.637 238.509 489.183 238.573C488.729 238.637 488.394 238.781 488.178 239.005C487.97 239.218 487.849 239.504 487.814 239.864C487.777 240.214 487.792 240.627 487.858 241.102L488.649 246.727C488.716 247.202 488.817 247.613 488.952 247.961C489.085 248.297 489.282 248.55 489.543 248.718C489.813 248.874 490.175 248.92 490.629 248.856Z" fill="#292929"/>
<path d="M499.506 249.046C498.809 249.144 498.209 249.094 497.707 248.895C497.205 248.696 496.803 248.365 496.501 247.901C496.199 247.437 496 246.867 495.905 246.191L495.845 245.764L497.525 245.527C497.535 245.601 497.546 245.681 497.558 245.765C497.568 245.839 497.583 245.907 497.603 245.969C497.701 246.515 497.87 246.949 498.109 247.271C498.348 247.593 498.748 247.715 499.307 247.636C499.719 247.578 500.018 247.439 500.202 247.219C500.385 246.989 500.489 246.694 500.514 246.335C500.538 245.966 500.517 245.548 500.451 245.084C500.358 244.418 500.132 243.885 499.774 243.482C499.416 243.08 498.821 242.911 497.99 242.974C497.946 242.969 497.892 242.971 497.829 242.98C497.776 242.988 497.718 242.996 497.655 243.005C497.602 243.012 497.549 243.02 497.496 243.027L497.305 241.665C497.347 241.659 497.394 241.652 497.447 241.644C497.511 241.636 497.569 241.627 497.621 241.62C497.683 241.6 497.73 241.589 497.762 241.584C498.568 241.417 499.098 241.127 499.352 240.714C499.616 240.289 499.7 239.739 499.605 239.063C499.523 238.482 499.342 238.034 499.06 237.718C498.788 237.39 498.361 237.267 497.78 237.348C497.221 237.427 496.844 237.663 496.652 238.056C496.458 238.439 496.38 238.919 496.418 239.495C496.427 239.558 496.436 239.627 496.447 239.701C496.456 239.764 496.465 239.833 496.476 239.907L494.781 240.145L494.72 239.717C494.624 239.031 494.668 238.427 494.853 237.905C495.039 237.384 495.356 236.957 495.804 236.624C496.253 236.292 496.826 236.077 497.523 235.979C498.231 235.879 498.847 235.933 499.371 236.139C499.905 236.333 500.333 236.661 500.657 237.122C500.989 237.57 501.204 238.138 501.3 238.825C501.409 239.596 501.328 240.248 501.058 240.781C500.799 241.313 500.401 241.698 499.863 241.935C500.261 242.008 500.617 242.163 500.93 242.399C501.243 242.635 501.504 242.959 501.713 243.371C501.92 243.773 502.065 244.264 502.147 244.845C502.254 245.606 502.241 246.286 502.11 246.886C501.978 247.476 501.701 247.956 501.279 248.328C500.857 248.7 500.266 248.939 499.506 249.046Z" fill="#292929"/>
<path d="M446.927 325.853L449.355 313.122L452.514 313.724C453.279 313.87 453.859 314.128 454.256 314.497C454.665 314.857 454.924 315.319 455.034 315.883C455.144 316.447 455.128 317.101 454.986 317.845C454.858 318.515 454.626 319.074 454.292 319.52C453.967 319.969 453.548 320.285 453.035 320.47C452.524 320.644 451.923 320.665 451.232 320.533L449.833 320.266L448.703 326.191L446.927 325.853ZM450.076 318.993L450.893 319.149C451.406 319.247 451.821 319.266 452.136 319.207C452.451 319.147 452.699 318.988 452.879 318.729C453.06 318.46 453.201 318.063 453.301 317.539C453.417 316.932 453.459 316.457 453.426 316.114C453.404 315.773 453.264 315.513 453.005 315.333C452.746 315.153 452.318 315.007 451.721 314.893L450.888 314.734L450.076 318.993Z" fill="white"/>
<path d="M455.343 327.458L457.771 314.727L462.706 315.668L462.454 316.988L459.295 316.386L458.491 320.598L461.053 321.087L460.813 322.344L458.252 321.855L457.361 326.523L460.552 327.132L460.309 328.405L455.343 327.458Z" fill="white"/>
<path d="M462.607 328.843L465.035 316.112L469.876 317.036L469.624 318.356L466.559 317.771L464.383 329.182L462.607 328.843Z" fill="white"/>
<path d="M469.534 330.164L471.962 317.434L476.803 318.357L476.551 319.677L473.486 319.092L471.31 330.503L469.534 330.164Z" fill="white"/>
<path d="M476.461 331.485L478.889 318.755L480.461 319.054L478.779 327.871L484.186 319.765L485.459 320.008L483.031 332.738L481.475 332.441L483.184 323.483L477.782 331.737L476.461 331.485Z" fill="white"/>
<path d="M485.356 333.181L491.21 321.104L492.672 321.383L486.802 333.457L485.356 333.181Z" fill="white"/>
<path d="M495.72 335.305C494.819 335.133 494.153 334.81 493.722 334.337C493.301 333.866 493.052 333.292 492.975 332.615C492.908 331.94 492.95 331.209 493.1 330.423L493.957 325.928C494.121 325.069 494.358 324.338 494.669 323.735C494.99 323.134 495.429 322.707 495.988 322.455C496.559 322.195 497.295 322.151 498.196 322.323C498.992 322.474 499.593 322.741 499.998 323.122C500.413 323.506 500.669 323.989 500.764 324.572C500.869 325.156 500.849 325.831 500.703 326.596L500.512 327.602L498.83 327.281L499.001 326.385C499.091 325.914 499.143 325.495 499.159 325.129C499.187 324.754 499.115 324.447 498.944 324.208C498.772 323.969 498.44 323.803 497.948 323.709C497.445 323.613 497.057 323.653 496.784 323.829C496.514 323.994 496.304 324.269 496.155 324.654C496.018 325.029 495.9 325.479 495.8 326.003L494.838 331.048C494.716 331.687 494.671 332.205 494.704 332.602C494.739 332.989 494.862 333.284 495.073 333.487C495.284 333.69 495.594 333.831 496.002 333.909C496.484 334.001 496.85 333.962 497.1 333.792C497.351 333.612 497.539 333.339 497.663 332.971C497.788 332.604 497.898 332.169 497.994 331.666L498.174 330.723L499.855 331.044L499.675 331.987C499.528 332.762 499.302 333.431 499 333.992C498.699 334.543 498.287 334.942 497.762 335.189C497.239 335.426 496.558 335.464 495.72 335.305Z" fill="white"/>
<path d="M501.509 336.262L503.937 323.532L505.713 323.87L504.634 329.528L505.294 329.654L508.652 324.431L510.428 324.769L506.76 330.341L508.315 337.56L506.539 337.221L505.145 330.522L504.469 330.393L503.285 336.601L501.509 336.262Z" fill="white"/>
<path d="M509.663 337.817L514.795 325.602L516.508 325.929L516.799 339.178L515.117 338.857L515.147 335.54L512.554 335.046L511.329 338.135L509.663 337.817ZM513.032 333.818L515.154 334.222L515.179 328.282L513.032 333.818Z" fill="white"/>
<path d="M420.789 405.615L427.305 402.318L429.4 395.929L430.66 397.041L429.108 401.774L433.479 399.529L434.739 400.64L428.518 403.579L426.26 410.443L425 409.331L426.645 404.275L422.049 406.727L420.789 405.615Z" fill="#292929"/>
<path d="M427.308 411.368L437.947 403.472L439.255 404.625L432.755 416.174L431.471 415.042L433.187 412.203L431.208 410.456L428.58 412.49L427.308 411.368ZM432.245 409.643L433.865 411.072L436.913 405.973L432.245 409.643Z" fill="#292929"/>
<path d="M432.955 418.976L433.876 417.932C434.257 418.339 434.577 418.621 434.836 418.779C435.103 418.944 435.337 419.001 435.538 418.951C435.74 418.915 435.933 418.794 436.116 418.586C436.307 418.37 436.509 418.093 436.722 417.754L442.425 407.423L443.708 408.556L440.872 413.414L438.643 416.932L441.774 414.254L446.18 410.736L447.475 411.88L438.092 419.006C437.666 419.328 437.295 419.612 436.978 419.858C436.669 420.112 436.374 420.3 436.095 420.423C435.823 420.554 435.543 420.598 435.253 420.555C434.963 420.513 434.633 420.364 434.261 420.107C433.898 419.858 433.463 419.481 432.955 418.976Z" fill="#292929"/>
<path d="M442.802 425.232C442.114 424.625 441.705 424.008 441.575 423.382C441.453 422.762 441.532 422.141 441.81 421.519C442.097 420.904 442.505 420.297 443.034 419.697L446.062 416.266C446.641 415.61 447.217 415.102 447.792 414.741C448.374 414.387 448.97 414.244 449.579 414.312C450.202 414.379 450.858 414.716 451.546 415.323C452.154 415.859 452.535 416.395 452.689 416.929C452.852 417.471 452.825 418.016 452.61 418.566C452.403 419.123 452.042 419.694 451.527 420.278L450.849 421.045L449.566 419.913L450.169 419.229C450.487 418.869 450.745 418.535 450.945 418.228C451.16 417.92 451.255 417.619 451.229 417.326C451.203 417.033 451.002 416.721 450.626 416.389C450.243 416.05 449.888 415.887 449.564 415.9C449.247 415.905 448.927 416.034 448.602 416.289C448.293 416.542 447.962 416.869 447.609 417.269L444.211 421.12C443.781 421.608 443.478 422.031 443.304 422.389C443.137 422.74 443.093 423.056 443.171 423.339C443.249 423.621 443.444 423.9 443.756 424.175C444.124 424.5 444.458 424.653 444.759 424.634C445.067 424.607 445.369 424.467 445.663 424.215C445.957 423.962 446.273 423.644 446.612 423.26L447.247 422.54L448.531 423.673L447.896 424.393C447.373 424.984 446.839 425.445 446.293 425.774C445.754 426.094 445.195 426.228 444.617 426.173C444.047 426.11 443.441 425.797 442.802 425.232Z" fill="#292929"/>
<path d="M446.888 428.646L458.078 421.236L459.194 422.221L447.991 429.62L446.888 428.646Z" fill="#292929"/>
<path d="M410.646 419.337L418.332 410.627L416.688 409.177L417.578 408.169L422.172 412.224L421.283 413.232L419.687 411.824L412.002 420.533L410.646 419.337Z" fill="#292929"/>
<path d="M415.194 423.35L423.769 413.633L427.536 416.957L426.647 417.965L424.235 415.837L421.398 419.052L423.354 420.778L422.507 421.737L420.551 420.012L417.407 423.575L419.842 425.724L418.985 426.696L415.194 423.35Z" fill="#292929"/>
<path d="M420.139 427.714L426.655 424.417L428.75 418.029L430.01 419.14L428.458 423.873L432.829 421.628L434.089 422.74L427.868 425.679L425.61 432.542L424.35 431.43L425.995 426.374L421.399 428.826L420.139 427.714Z" fill="#292929"/>
<path d="M427.186 433.933L435.762 424.216L437.117 425.412L433.412 429.611L435.907 431.813L439.613 427.614L440.968 428.81L432.393 438.528L431.037 437.331L435.05 432.785L432.554 430.583L428.542 435.129L427.186 433.933Z" fill="#292929"/>
<path d="M436.959 442.749C436.303 442.17 435.892 441.58 435.726 440.978C435.56 440.377 435.601 439.766 435.85 439.146C436.105 438.517 436.515 437.883 437.08 437.244L440.33 433.561C440.895 432.921 441.462 432.447 442.032 432.139C442.618 431.831 443.208 431.726 443.804 431.825C444.415 431.923 445.048 432.261 445.704 432.84C446.359 433.418 446.77 434.001 446.935 434.588C447.1 435.175 447.066 435.77 446.831 436.374C446.605 436.985 446.209 437.611 445.645 438.25L442.384 441.946C441.827 442.577 441.252 443.052 440.659 443.368C440.075 443.692 439.474 443.816 438.857 443.741C438.248 443.659 437.615 443.328 436.959 442.749ZM437.901 441.681C438.261 441.999 438.597 442.167 438.908 442.185C439.226 442.196 439.533 442.097 439.83 441.89C440.134 441.674 440.445 441.386 440.762 441.027L444.521 436.768C444.838 436.408 445.078 436.072 445.24 435.759C445.409 435.439 445.461 435.129 445.397 434.831C445.34 434.525 445.132 434.213 444.772 433.895C444.412 433.578 444.073 433.406 443.754 433.381C443.45 433.354 443.149 433.445 442.852 433.652C442.563 433.852 442.259 434.132 441.941 434.492L438.183 438.75C437.865 439.11 437.619 439.454 437.443 439.783C437.274 440.103 437.214 440.421 437.264 440.735C437.329 441.048 437.541 441.364 437.901 441.681Z" fill="#292929"/>
<path d="M302.075 461.755L309.223 463.255L314.851 459.579L315.14 461.234L310.969 463.958L315.785 464.938L316.073 466.593L309.38 464.998L303.327 468.943L303.039 467.288L307.484 464.37L302.363 463.41L302.075 461.755Z" fill="white"/>
<path d="M303.688 471.014L316.456 468.791L316.73 470.367L307.887 471.907L317.381 474.103L317.603 475.38L304.835 477.603L304.564 476.043L313.548 474.478L303.918 472.339L303.688 471.014Z" fill="white"/>
<path d="M305.335 480.471L318.103 478.247L319.327 485.277L306.559 487.501L306.249 485.72L317.74 483.719L317.136 480.251L305.645 482.252L305.335 480.471Z" fill="white"/>
<path d="M311.133 489.421L312.409 489.199L313.022 492.714L311.745 492.936L311.133 489.421Z" fill="white"/>
<path d="M307.953 495.501L315.1 497.001L320.729 493.325L321.017 494.98L316.846 497.704L321.662 498.684L321.95 500.34L315.257 498.744L309.204 502.689L308.916 501.034L313.362 498.116L308.241 497.157L307.953 495.501Z" fill="white"/>
<path d="M309.992 508.048C309.842 507.187 309.89 506.469 310.136 505.896C310.383 505.322 310.797 504.871 311.379 504.542C311.971 504.212 312.687 503.974 313.528 503.827L318.367 502.984C319.208 502.838 319.947 502.823 320.584 502.939C321.234 503.064 321.76 503.352 322.163 503.801C322.579 504.259 322.862 504.919 323.012 505.781C323.162 506.643 323.118 507.354 322.88 507.915C322.642 508.476 322.243 508.919 321.682 509.244C321.124 509.58 320.424 509.821 319.583 509.967L314.728 510.813C313.898 510.957 313.153 510.968 312.493 510.845C311.834 510.732 311.288 510.454 310.853 510.01C310.429 509.564 310.142 508.91 309.992 508.048ZM311.395 507.804C311.477 508.277 311.634 508.618 311.865 508.827C312.107 509.033 312.408 509.149 312.77 509.172C313.142 509.194 313.564 509.164 314.037 509.082L319.633 508.107C320.106 508.025 320.503 507.912 320.825 507.77C321.157 507.625 321.391 507.417 321.528 507.144C321.675 506.869 321.707 506.495 321.625 506.022C321.542 505.55 321.385 505.203 321.151 504.984C320.931 504.774 320.64 504.656 320.278 504.633C319.927 504.607 319.515 504.636 319.043 504.718L313.447 505.693C312.974 505.775 312.566 505.889 312.223 506.036C311.891 506.18 311.646 506.391 311.489 506.667C311.344 506.952 311.312 507.331 311.395 507.804Z" fill="white"/>
<path d="M311.196 514.125L323.964 511.901L325.188 518.931L312.421 521.155L312.11 519.374L323.601 517.373L322.997 513.905L311.506 515.906L311.196 514.125Z" fill="white"/>
<path d="M126.511 442.374L117.408 433.149L122.488 428.137L131.591 437.362L130.304 438.632L122.111 430.329L119.606 432.802L127.798 441.104L126.511 442.374Z" fill="#292929"/>
<path d="M136.114 433.101C135.491 433.716 134.874 434.085 134.262 434.209C133.65 434.333 133.044 434.25 132.442 433.959C131.833 433.661 131.229 433.208 130.63 432.601L127.18 429.104C126.58 428.497 126.147 427.898 125.879 427.308C125.612 426.703 125.548 426.107 125.688 425.519C125.828 424.917 126.209 424.308 126.831 423.694C127.454 423.08 128.064 422.71 128.66 422.586C129.257 422.462 129.849 422.538 130.435 422.813C131.029 423.081 131.626 423.519 132.225 424.126L135.686 427.634C136.278 428.234 136.712 428.84 136.987 429.453C137.269 430.058 137.352 430.666 137.235 431.276C137.11 431.879 136.736 432.487 136.114 433.101ZM135.114 432.088C135.455 431.751 135.646 431.428 135.686 431.119C135.718 430.802 135.641 430.489 135.454 430.178C135.261 429.86 134.995 429.53 134.658 429.188L130.668 425.145C130.331 424.804 130.012 424.541 129.712 424.358C129.404 424.168 129.099 424.094 128.797 424.137C128.488 424.173 128.162 424.359 127.82 424.696C127.479 425.033 127.284 425.36 127.237 425.677C127.189 425.978 127.259 426.284 127.446 426.595C127.625 426.897 127.883 427.22 128.22 427.561L132.209 431.605C132.546 431.946 132.873 432.216 133.188 432.414C133.496 432.605 133.809 432.686 134.125 432.658C134.443 432.615 134.772 432.425 135.114 432.088Z" fill="#292929"/>
<path d="M140.421 428.649L131.318 419.424L136.398 414.412L145.5 423.637L144.214 424.907L136.021 416.604L133.516 419.077L141.708 427.379L140.421 428.649Z" fill="#292929"/>
<path d="M227.454 495.346L215.069 491.53L215.837 489.037C216.091 488.212 216.414 487.563 216.805 487.092C217.185 486.618 217.66 486.329 218.227 486.224C218.788 486.107 219.461 486.169 220.246 486.411C220.725 486.559 221.148 486.745 221.514 486.969C221.87 487.191 222.151 487.456 222.357 487.765C222.553 488.071 222.655 488.426 222.665 488.831L229.414 488.985L228.901 490.652L222.591 490.482L222.176 491.828L227.987 493.618L227.454 495.346ZM220.938 491.446L221.14 490.789C221.291 490.299 221.353 489.883 221.324 489.54C221.296 489.196 221.156 488.907 220.905 488.674C220.653 488.44 220.262 488.241 219.732 488.078C219.009 487.855 218.448 487.827 218.05 487.995C217.642 488.159 217.317 488.634 217.076 489.419L216.84 490.183L220.938 491.446Z" fill="#292929"/>
<path d="M231.095 484.019C230.923 484.58 230.656 485.028 230.296 485.363C229.929 485.686 229.503 485.889 229.019 485.975C228.539 486.05 228.028 486.004 227.488 485.838C226.703 485.596 226.079 485.214 225.614 484.691C225.143 484.155 224.761 483.568 224.466 482.931C224.042 483.001 223.614 483.087 223.181 483.188C222.741 483.275 222.299 483.334 221.854 483.365C221.403 483.382 220.958 483.323 220.519 483.188C219.969 483.018 219.523 482.764 219.181 482.424C218.839 482.084 218.617 481.681 218.516 481.214C218.404 480.745 218.431 480.239 218.597 479.699C218.751 479.2 218.98 478.785 219.283 478.454C219.589 478.113 219.951 477.878 220.37 477.751C220.778 477.62 221.222 477.628 221.701 477.776C222.242 477.942 222.722 478.23 223.143 478.639C223.557 479.034 223.923 479.476 224.241 479.965C224.549 480.451 224.815 480.912 225.037 481.349L228.548 480.388C228.368 480.21 228.157 480.044 227.914 479.891C227.664 479.725 227.394 479.569 227.104 479.424C226.817 479.269 226.535 479.132 226.259 479.013L226.759 477.392C227.156 477.515 227.555 477.705 227.956 477.962C228.36 478.209 228.732 478.486 229.073 478.792C229.404 479.095 229.677 479.385 229.893 479.664C230.097 479.582 230.298 479.454 230.496 479.281C230.685 479.104 230.816 478.894 230.892 478.649L232.574 479.167C232.561 479.208 232.549 479.249 232.536 479.29C232.527 479.32 232.517 479.351 232.508 479.382C232.406 479.674 232.259 479.919 232.064 480.115C231.859 480.309 231.635 480.474 231.392 480.612C231.152 480.738 230.924 480.863 230.707 480.987C230.969 481.369 231.148 481.82 231.244 482.341C231.333 482.848 231.284 483.408 231.095 484.019ZM229.734 483.6C229.854 483.213 229.863 482.858 229.761 482.537C229.649 482.212 229.505 481.916 229.331 481.651L225.826 482.647C226.067 482.989 226.377 483.302 226.758 483.587C227.132 483.858 227.544 484.063 227.992 484.201C228.227 484.274 228.465 484.314 228.708 484.322C228.941 484.327 229.153 484.275 229.343 484.166C229.522 484.054 229.653 483.865 229.734 483.6ZM223.976 481.641C223.787 481.349 223.548 481.057 223.258 480.767C222.971 480.466 222.652 480.195 222.303 479.954C221.943 479.709 221.574 479.528 221.197 479.412C220.902 479.321 220.644 479.342 220.424 479.475C220.194 479.605 220.034 479.818 219.943 480.114C219.83 480.481 219.892 480.785 220.131 481.026C220.369 481.266 220.667 481.442 221.023 481.552C221.492 481.696 221.985 481.764 222.501 481.756C223.01 481.734 223.501 481.696 223.976 481.641Z" fill="#292929"/>
<path d="M233.273 476.462L220.888 472.646L221.764 469.802C221.937 469.241 222.148 468.776 222.396 468.406C222.647 468.026 222.942 467.737 223.282 467.54C223.621 467.344 224.01 467.24 224.449 467.23C224.877 467.217 225.356 467.292 225.886 467.456C226.396 467.613 226.819 467.816 227.155 468.064C227.484 468.3 227.715 468.583 227.848 468.914C227.983 469.235 228.019 469.608 227.954 470.035C228.22 469.57 228.538 469.227 228.908 469.006C229.267 468.782 229.682 468.664 230.155 468.654C230.62 468.63 231.148 468.709 231.739 468.891C232.269 469.054 232.734 469.265 233.135 469.522C233.536 469.779 233.848 470.088 234.072 470.447C234.3 470.796 234.437 471.201 234.485 471.662C234.525 472.11 234.461 472.609 234.291 473.16L233.273 476.462ZM232.567 474.353L232.925 473.191C233.164 472.416 233.144 471.846 232.866 471.482C232.581 471.104 232.035 470.79 231.23 470.542C230.71 470.382 230.255 470.32 229.865 470.356C229.467 470.378 229.134 470.516 228.867 470.768C228.592 471.007 228.376 471.382 228.219 471.891L227.904 472.916L232.567 474.353ZM226.589 472.511L226.904 471.486C227.055 470.997 227.107 470.594 227.059 470.278C227.001 469.959 226.836 469.696 226.565 469.49C226.294 469.283 225.914 469.105 225.424 468.954C224.854 468.778 224.414 468.738 224.106 468.832C223.798 468.927 223.556 469.149 223.382 469.497C223.198 469.842 223.014 470.31 222.832 470.901L222.705 471.314L226.589 472.511Z" fill="#292929"/>
<path d="M50.9291 381.913C50.1785 382.219 49.5246 382.324 48.9673 382.229C48.41 382.134 47.9279 381.87 47.5208 381.437C47.1236 381 46.7779 380.421 46.4837 379.7L46.2419 379.108L47.827 378.461L48.0205 378.935C48.1978 379.369 48.3767 379.751 48.5573 380.081C48.7477 380.406 48.982 380.628 49.2601 380.745C49.5441 380.848 49.9181 380.804 50.3823 380.615C50.8564 380.422 51.1597 380.177 51.2924 379.881C51.425 379.585 51.4444 379.237 51.3505 378.837C51.2566 378.438 51.1089 377.991 50.9074 377.498L50.1337 375.601L48.0301 376.46L47.5827 375.363L49.6863 374.505L48.973 372.757C48.7272 372.155 48.4844 371.701 48.2446 371.395C48.0007 371.08 47.735 370.895 47.4474 370.839C47.1697 370.78 46.8382 370.829 46.4531 370.986C46.0086 371.167 45.723 371.399 45.5962 371.681C45.4793 371.959 45.4658 372.293 45.5556 372.683C45.6513 373.058 45.7959 373.483 45.9893 373.957L46.2009 374.476L44.6158 375.123L44.3982 374.589C44.1 373.858 43.9269 373.18 43.879 372.555C43.8311 371.929 43.9619 371.374 44.2715 370.891C44.587 370.394 45.1398 369.984 45.9299 369.661C46.7792 369.315 47.5085 369.224 48.1178 369.391C48.727 369.557 49.2435 369.905 49.6671 370.435C50.0965 370.951 50.4644 371.584 50.7706 372.335L52.4995 376.571C52.83 377.381 53.0263 378.131 53.0885 378.819C53.1566 379.494 53.027 380.095 52.6999 380.62C52.3687 381.135 51.7784 381.566 50.9291 381.913Z" fill="#292929"/>
<path d="M57.9268 379.092L53.5382 368.337L51.5086 369.165L51.0009 367.92L56.6747 365.605L57.1824 366.85L55.2122 367.654L59.6008 378.409L57.9268 379.092Z" fill="#292929"/>
<path d="M63.5427 376.8L58.6462 364.801L60.3202 364.118L62.436 369.302L65.5173 368.045L63.4016 362.86L65.0755 362.177L69.972 374.177L68.298 374.86L66.0069 369.245L62.9256 370.502L65.2167 376.117L63.5427 376.8Z" fill="#292929"/>
<path d="M72.6614 373.079L67.765 361.08L69.2464 360.475L72.6377 368.786L72.7574 359.043L73.9573 358.553L78.8537 370.552L77.3871 371.151L73.9415 362.707L73.9058 372.571L72.6614 373.079Z" fill="#292929"/>
<path d="M86.1411 367.579L83.8803 362.038C83.2889 362.452 82.7315 362.766 82.2081 362.98C81.5267 363.258 80.9185 363.391 80.3836 363.379C79.8545 363.353 79.3918 363.178 78.9954 362.856C78.6089 362.53 78.2886 362.056 78.0348 361.434L76.4449 357.538L78.1337 356.849L79.7236 360.745C79.8767 361.12 80.06 361.414 80.2734 361.626C80.4828 361.829 80.7371 361.944 81.0364 361.972C81.3317 361.989 81.6818 361.916 82.0867 361.75C82.2941 361.666 82.5103 361.56 82.7352 361.434C82.97 361.304 83.2086 361.154 83.4511 360.986L81.2447 355.579L82.9335 354.89L87.8299 366.889L86.1411 367.579Z" fill="#292929"/>
<path d="M90.5084 365.797L85.612 353.797L90.2636 351.899L90.7714 353.143L87.7937 354.358L89.4138 358.329L91.8285 357.343L92.3121 358.528L89.8974 359.514L91.6928 363.914L94.7 362.686L95.1897 363.886L90.5084 365.797Z" fill="#292929"/>
<path d="M100.418 361.909C99.5682 362.255 98.834 362.347 98.2148 362.185C97.6056 362.019 97.0842 361.673 96.6507 361.147C96.2271 360.617 95.8642 359.982 95.562 359.241L93.8331 355.005C93.5027 354.195 93.3034 353.452 93.2353 352.777C93.1771 352.098 93.3136 351.501 93.6448 350.986C93.9819 350.457 94.5751 350.019 95.4244 349.672C96.175 349.366 96.824 349.262 97.3713 349.362C97.9286 349.457 98.4058 349.723 98.8031 350.16C99.2101 350.593 99.5608 351.17 99.855 351.891L100.242 352.839L98.6567 353.486L98.3122 352.641C98.1308 352.197 97.9469 351.817 97.7605 351.501C97.58 351.172 97.3527 350.953 97.0786 350.846C96.8045 350.739 96.4353 350.78 95.9712 350.97C95.4971 351.163 95.1938 351.408 95.0611 351.704C94.9245 351.99 94.8981 352.335 94.9821 352.738C95.072 353.128 95.2177 353.57 95.4192 354.064L97.3596 358.819C97.6054 359.421 97.8503 359.88 98.0941 360.195C98.3339 360.501 98.5976 360.681 98.8852 360.737C99.1728 360.792 99.5092 360.741 99.8944 360.584C100.349 360.399 100.634 360.167 100.751 359.889C100.864 359.601 100.873 359.269 100.777 358.893C100.681 358.518 100.537 358.093 100.343 357.619L99.9806 356.73L101.566 356.083L101.928 356.972C102.227 357.703 102.402 358.386 102.454 359.021C102.502 359.647 102.373 360.206 102.067 360.7C101.757 361.183 101.208 361.586 100.418 361.909Z" fill="#292929"/>
<path d="M105.795 359.559L100.898 347.559L102.572 346.876L104.748 352.209L105.371 351.956L105.343 345.746L107.017 345.063L106.974 351.733L112.209 356.941L110.535 357.624L105.718 352.764L105.081 353.024L107.469 358.876L105.795 359.559Z" fill="#292929"/>
<path d="M113.48 356.423L111.132 343.383L112.747 342.725L120.206 353.678L118.621 354.325L116.84 351.527L114.395 352.524L115.051 355.782L113.48 356.423ZM114.128 351.233L116.128 350.417L112.914 345.421L114.128 351.233Z" fill="#292929"/>
<path d="M121.498 353.151L121.816 346.731C121.186 346.712 120.597 346.497 120.049 346.087C119.508 345.663 119.061 345.021 118.711 344.162C118.449 343.52 118.336 342.904 118.371 342.313C118.403 341.713 118.637 341.156 119.073 340.644C119.509 340.132 120.191 339.687 121.12 339.308L123.549 338.317L128.446 350.316L126.772 350.999L124.74 346.022L123.792 346.409C123.773 346.417 123.708 346.443 123.6 346.487C123.487 346.522 123.421 346.543 123.401 346.551L123.364 352.39L121.498 353.151ZM123.629 345.076L124.251 344.822L122.365 340.2L121.698 340.472C120.948 340.778 120.446 341.173 120.194 341.656C119.952 342.135 119.984 342.75 120.29 343.5C120.636 344.35 121.067 344.911 121.582 345.185C122.097 345.459 122.779 345.422 123.629 345.076Z" fill="#292929"/>
<path d="M36.2315 318.84L34.8752 305.951L36.6733 305.762L37.2761 311.49L37.9444 311.42L39.6489 305.448L41.447 305.259L39.5457 311.653L43.1215 318.115L41.3234 318.304L38.0524 312.293L37.3682 312.365L38.0296 318.65L36.2315 318.84Z" fill="white"/>
<path d="M44.2164 317.999L44.0758 316.663C44.3103 316.649 44.5208 316.611 44.7073 316.548C44.9043 316.484 45.0688 316.365 45.2005 316.19C45.3429 316.015 45.4546 315.751 45.5356 315.399C45.6165 315.047 45.6687 314.575 45.6922 313.983C45.7157 313.39 45.7124 312.645 45.6822 311.748L45.3902 304.844L51.0549 304.248L52.4112 317.137L50.6131 317.326L49.3975 305.774L47.0743 306.018L47.353 311.572C47.387 312.405 47.3968 313.16 47.3822 313.837C47.3666 314.504 47.3001 315.095 47.1829 315.612C47.0751 316.117 46.9006 316.548 46.6594 316.906C46.4277 317.252 46.1122 317.516 45.713 317.697C45.3138 317.879 44.815 317.979 44.2164 317.999Z" fill="white"/>
<path d="M54.6079 316.906L55.9885 303.729L57.723 303.547L61.8321 316.146L60.1295 316.325L59.1991 313.141L56.5736 313.417L56.2946 316.728L54.6079 316.906ZM56.6767 312.103L58.8248 311.877L57.1316 306.183L56.6767 312.103Z" fill="white"/>
<path d="M67.2602 315.719C66.3479 315.815 65.6171 315.699 65.0677 315.371C64.529 315.041 64.1248 314.564 63.8551 313.938C63.5961 313.311 63.4247 312.6 63.341 311.804L62.8621 307.253C62.7705 306.383 62.7862 305.615 62.9091 304.947C63.0425 304.279 63.3401 303.744 63.8019 303.341C64.2731 302.927 64.9649 302.672 65.8772 302.576C66.6834 302.491 67.3355 302.573 67.8335 302.82C68.3421 303.067 68.7262 303.456 68.9858 303.986C69.256 304.516 69.4319 305.167 69.5134 305.942L69.6205 306.96L67.9179 307.139L67.8225 306.232C67.7723 305.755 67.7017 305.339 67.6107 304.984C67.5292 304.617 67.3717 304.344 67.1384 304.165C66.905 303.985 66.539 303.922 66.0404 303.974C65.5312 304.028 65.1717 304.178 64.9617 304.426C64.7507 304.663 64.6292 304.986 64.5974 305.397C64.5751 305.796 64.5918 306.261 64.6476 306.792L65.1851 311.899C65.2532 312.547 65.3604 313.055 65.5066 313.426C65.6518 313.786 65.8547 314.033 66.1155 314.167C66.3762 314.3 66.7134 314.345 67.1271 314.301C67.6151 314.25 67.954 314.107 68.1438 313.873C68.3326 313.628 68.4333 313.311 68.4462 312.924C68.4591 312.536 68.4387 312.088 68.3851 311.579L68.2846 310.624L69.9872 310.445L70.0877 311.4C70.1703 312.185 70.148 312.89 70.0206 313.514C69.8922 314.128 69.6125 314.63 69.1814 315.018C68.7493 315.396 68.1089 315.63 67.2602 315.719Z" fill="white"/>
<path d="M76.3246 314.765C75.4123 314.861 74.6814 314.745 74.1321 314.417C73.5933 314.088 73.1891 313.61 72.9194 312.984C72.6604 312.357 72.489 311.646 72.4053 310.85L71.9264 306.299C71.8349 305.429 71.8505 304.661 71.9734 303.994C72.1068 303.325 72.4044 302.79 72.8662 302.387C73.3374 301.973 74.0292 301.718 74.9415 301.622C75.7477 301.537 76.3998 301.619 76.8978 301.867C77.4065 302.113 77.7906 302.502 78.0502 303.032C78.3204 303.562 78.4962 304.214 78.5777 304.988L78.6849 306.006L76.9823 306.185L76.8868 305.279C76.8366 304.801 76.766 304.385 76.675 304.03C76.5935 303.663 76.4361 303.39 76.2027 303.211C75.9693 303.032 75.6033 302.968 75.1048 303.021C74.5956 303.074 74.236 303.225 74.0261 303.472C73.815 303.709 73.6936 304.033 73.6617 304.443C73.6394 304.843 73.6561 305.307 73.7119 305.838L74.2494 310.946C74.3175 311.593 74.4247 312.102 74.571 312.472C74.7161 312.832 74.9191 313.079 75.1798 313.213C75.4405 313.346 75.7777 313.391 76.1915 313.348C76.6794 313.296 77.0183 313.153 77.2082 312.919C77.3969 312.674 77.4977 312.357 77.5105 311.97C77.5234 311.582 77.503 311.134 77.4494 310.625L77.349 309.67L79.0516 309.491L79.152 310.446C79.2346 311.231 79.2123 311.936 79.085 312.56C78.9565 313.175 78.6768 313.676 78.2458 314.065C77.8136 314.442 77.1732 314.676 76.3246 314.765Z" fill="white"/>
<path d="M82.1437 314.008L80.7874 301.119L82.3786 300.952L83.3179 309.879L86.1498 300.555L87.4387 300.42L88.7949 313.308L87.2196 313.474L86.2652 304.404L83.4803 313.868L82.1437 314.008Z" fill="white"/>
<path d="M91.6897 313.004L90.3334 300.115L92.1315 299.926L92.7343 305.654L93.4026 305.584L95.1071 299.613L96.9051 299.423L95.0038 305.817L98.5797 312.279L96.7816 312.468L93.5106 306.457L92.8264 306.529L93.4878 312.815L91.6897 313.004Z" fill="white"/>
<path d="M99.9451 312.135L101.326 298.958L103.06 298.776L107.169 311.375L105.467 311.554L104.536 308.37L101.911 308.646L101.632 311.958L99.9451 312.135ZM102.014 307.332L104.162 307.106L102.469 301.412L102.014 307.332Z" fill="white"/>
<path d="M68.1282 209.34L73.1737 197.403L76.1359 198.655C76.8532 198.958 77.367 199.331 77.6773 199.775C78.0017 200.213 78.1583 200.72 78.1471 201.294C78.136 201.868 77.983 202.504 77.6882 203.202C77.4224 203.831 77.0789 204.328 76.6578 204.694C76.2465 205.065 75.7707 205.286 75.2304 205.359C74.6943 205.422 74.102 205.317 73.4535 205.042L72.1419 204.488L69.7935 210.044L68.1282 209.34ZM72.6464 203.294L73.4128 203.618C73.8942 203.822 74.2953 203.928 74.6161 203.936C74.9369 203.944 75.2123 203.84 75.4423 203.625C75.6765 203.4 75.8974 203.041 76.105 202.55C76.3459 201.98 76.4864 201.524 76.5268 201.182C76.5769 200.845 76.4942 200.561 76.2788 200.331C76.0633 200.101 75.6756 199.867 75.1156 199.631L74.3345 199.3L72.6464 203.294Z" fill="#292929"/>
<path d="M79.0144 214.098C78.2087 213.757 77.6316 213.328 77.2831 212.81C76.9345 212.292 76.7796 211.7 76.8183 211.033C76.8611 210.356 77.0486 209.625 77.3808 208.839L79.2931 204.314C79.6254 203.528 80.013 202.899 80.456 202.426C80.913 201.948 81.4396 201.661 82.0358 201.565C82.646 201.464 83.3539 201.584 84.1595 201.924C84.9652 202.265 85.5395 202.687 85.8823 203.191C86.2252 203.695 86.3815 204.271 86.3511 204.918C86.3305 205.569 86.1541 206.288 85.8219 207.074L83.9034 211.613C83.5753 212.389 83.1807 213.022 82.7196 213.51C82.2682 214.002 81.7382 214.311 81.1296 214.436C80.5251 214.551 79.82 214.438 79.0144 214.098ZM79.5687 212.786C80.0109 212.973 80.3823 213.026 80.683 212.944C80.9879 212.853 81.2482 212.662 81.4638 212.371C81.6836 212.07 81.8869 211.699 82.0738 211.257L84.2851 206.025C84.472 205.583 84.5926 205.188 84.6468 204.84C84.7053 204.483 84.6568 204.173 84.5014 203.91C84.3502 203.638 84.0535 203.408 83.6114 203.221C83.1693 203.035 82.7929 202.98 82.4824 203.057C82.1858 203.128 81.9297 203.31 81.714 203.601C81.5026 203.882 81.3034 204.243 81.1165 204.686L78.9052 209.917C78.7183 210.36 78.5936 210.764 78.531 211.132C78.4726 211.489 78.5169 211.809 78.664 212.091C78.825 212.368 79.1266 212.599 79.5687 212.786Z" fill="#292929"/>
<path d="M84.7748 216.376L89.8203 204.439L91.4857 205.143L89.2432 210.448L89.8622 210.71L94.2416 206.307L95.907 207.011L91.1508 211.689L91.1562 219.073L89.4909 218.369L89.5344 211.527L88.9007 211.259L86.4402 217.08L84.7748 216.376Z" fill="#292929"/>
<path d="M356.829 447.672C356.455 446.953 356.291 446.311 356.335 445.747C356.379 445.184 356.598 444.68 356.993 444.235C357.392 443.8 357.937 443.403 358.628 443.044L359.196 442.75L359.984 444.27L359.53 444.505C359.113 444.721 358.749 444.934 358.437 445.144C358.13 445.363 357.931 445.617 357.84 445.904C357.763 446.196 357.84 446.565 358.071 447.01C358.307 447.464 358.578 447.744 358.885 447.85C359.192 447.955 359.54 447.942 359.929 447.813C360.319 447.683 360.75 447.495 361.223 447.25L363.042 446.307L361.996 444.29L363.047 443.745L364.093 445.762L365.769 444.893C366.346 444.593 366.776 444.31 367.059 444.044C367.35 443.772 367.511 443.491 367.54 443.199C367.574 442.917 367.495 442.592 367.304 442.222C367.083 441.796 366.826 441.533 366.533 441.432C366.246 441.341 365.912 441.358 365.532 441.483C365.167 441.612 364.757 441.795 364.302 442.03L363.805 442.288L363.017 440.768L363.528 440.503C364.229 440.14 364.889 439.906 365.508 439.801C366.126 439.697 366.69 439.777 367.2 440.041C367.724 440.31 368.182 440.823 368.575 441.581C368.997 442.395 369.154 443.113 369.043 443.735C368.933 444.357 368.634 444.903 368.144 445.373C367.67 445.847 367.072 446.271 366.353 446.645L362.29 448.751C361.514 449.154 360.785 449.417 360.105 449.542C359.439 449.671 358.83 449.596 358.277 449.318C357.734 449.035 357.251 448.487 356.829 447.672Z" fill="#292929"/>
<path d="M359.603 453.092L371.219 447.339L372.036 448.916L363.758 455.786L374.15 452.992L374.961 454.555L363.566 460.734L362.896 459.441L371.181 454.983L361.82 457.368L361.349 456.459L368.699 450.196L360.281 454.399L359.603 453.092Z" fill="#292929"/>
<path d="M364.885 463.279L376.391 457.313L378.954 462.255L377.789 462.859L376.058 459.522L372.436 461.4L372.62 461.755C373.052 462.588 373.309 463.326 373.39 463.969C373.486 464.617 373.36 465.198 373.015 465.714C372.675 466.239 372.064 466.73 371.183 467.186C370.587 467.496 370.039 467.69 369.539 467.769C369.049 467.843 368.587 467.799 368.156 467.639C367.729 467.488 367.331 467.219 366.963 466.833C366.609 466.452 366.27 465.949 365.946 465.324L364.885 463.279ZM366.868 464.287L367.104 464.742C367.35 465.215 367.603 465.576 367.864 465.825C368.14 466.079 368.476 466.193 368.871 466.168C369.272 466.153 369.784 465.983 370.409 465.659C371.195 465.251 371.675 464.81 371.85 464.335C372.029 463.87 371.907 463.23 371.485 462.416L371.272 462.004L366.868 464.287Z" fill="#292929"/>
<path d="M368.93 471.079L380.435 465.112L381.172 466.533L373.204 470.665L382.918 469.899L383.514 471.05L372.009 477.016L371.28 475.61L379.376 471.411L369.549 472.272L368.93 471.079Z" fill="#292929"/>
<path d="M373.349 479.6L384.854 473.634L387.167 478.094L385.974 478.712L384.493 475.857L380.687 477.831L381.887 480.147L380.751 480.736L379.55 478.421L375.332 480.608L376.827 483.492L375.677 484.088L373.349 479.6Z" fill="#292929"/>
<path d="M376.754 486.165L388.259 480.199L389.091 481.804L384.12 484.382L385.652 487.336L390.623 484.758L391.455 486.363L379.95 492.33L379.118 490.725L384.501 487.933L382.969 484.979L377.586 487.77L376.754 486.165Z" fill="#292929"/>
<path d="M381.943 496.172L392.255 490.825L391.246 488.879L392.439 488.26L395.26 493.7L394.067 494.319L393.087 492.43L382.775 497.777L381.943 496.172Z" fill="#292929"/>
<path fill-rule="evenodd" clip-rule="evenodd" d="M279.5 438C365.933 438 436 367.933 436 281.5C436 195.067 365.933 125 279.5 125C193.067 125 123 195.067 123 281.5C123 367.933 193.067 438 279.5 438ZM279.5 439C366.485 439 437 368.485 437 281.5C437 194.515 366.485 124 279.5 124C192.515 124 122 194.515 122 281.5C122 368.485 192.515 439 279.5 439Z" fill="black" fill-opacity="0.07"/>
<path fill-rule="evenodd" clip-rule="evenodd" d="M280 541C423.042 541 539 425.042 539 282C539 138.958 423.042 23 280 23C136.958 23 21 138.958 21 282C21 425.042 136.958 541 280 541ZM280 542C423.594 542 540 425.594 540 282C540 138.406 423.594 22 280 22C136.406 22 20 138.406 20 282C20 425.594 136.406 542 280 542Z" fill="black" fill-opacity="0.07"/>
</svg>
