<svg width="90" height="90" viewBox="0 0 90 90" fill="none" xmlns="http://www.w3.org/2000/svg">
<path d="M25.3816 14.6808C26.0978 13.4497 27.4147 12.6924 28.839 12.6924L61.1611 12.6924C62.5853 12.6924 63.9022 13.4497 64.6185 14.6808L80.7527 42.4116C81.4762 43.655 81.4762 45.1913 80.7527 46.4347L64.6185 74.1655C63.9022 75.3966 62.5853 76.1539 61.1611 76.1539H28.839C27.4147 76.1539 26.0978 75.3966 25.3816 74.1655L9.24731 46.4347C8.52383 45.1913 8.52383 43.6551 9.24731 42.4116L25.3816 14.6808Z" stroke="#292929" stroke-width="5"/>
<path fill-rule="evenodd" clip-rule="evenodd" d="M45 24.231C46.7308 24.231 48.4615 25.9617 48.4615 27.6925L47.3077 46.731C47.3077 48.0055 46.2745 49.0386 45 49.0386C43.7255 49.0386 42.6923 48.0055 42.6923 46.731L41.5385 27.6925C41.5385 25.9617 43.2692 24.231 45 24.231Z" fill="#292929"/>
<circle cx="45" cy="60.0001" r="3.46154" fill="#292929"/>
</svg>
