<svg width="90" height="90" viewBox="0 0 90 90" fill="none" xmlns="http://www.w3.org/2000/svg">
<path fill-rule="evenodd" clip-rule="evenodd" d="M45 16.0615C29.0177 16.0615 16.0615 29.0177 16.0615 45C16.0615 60.9823 29.0177 73.9385 45 73.9385C60.9823 73.9385 73.9385 60.9823 73.9385 45C73.9385 29.0177 60.9823 16.0615 45 16.0615ZM12 45C12 26.7746 26.7746 12 45 12C63.2254 12 78 26.7746 78 45C78 63.2254 63.2254 78 45 78C26.7746 78 12 63.2254 12 45Z" fill="#292929"/>
<path fill-rule="evenodd" clip-rule="evenodd" d="M38.3492 34.3385C38.3492 32.0951 40.168 30.2769 42.4109 30.2769H48.5538C51.1409 30.2769 53.4576 31.1381 55.1349 32.7969C56.8142 34.4578 57.6923 36.7601 57.6923 39.3373C57.6923 41.9144 56.8142 44.2168 55.1349 45.8776C53.4576 47.5365 51.1409 48.3976 48.5538 48.3976H42.4108V52.7716H48.5538C49.6754 52.7716 50.5846 53.6808 50.5846 54.8024C50.5846 55.9239 49.6754 56.8331 48.5538 56.8331H42.4108V59.7231C42.4108 60.8446 41.5016 61.7538 40.38 61.7538C39.2584 61.7538 38.3492 60.8446 38.3492 59.7231V56.8331H34.3385C33.2169 56.8331 32.3077 55.9239 32.3077 54.8024C32.3077 53.6808 33.2169 52.7716 34.3385 52.7716H38.3492V48.3976H34.3385C33.2169 48.3976 32.3077 47.4884 32.3077 46.3669C32.3077 45.2453 33.2169 44.3361 34.3385 44.3361H38.3492V34.3385ZM42.4108 44.3361H48.5538C50.2314 44.3361 51.4685 43.7913 52.2789 42.9898C53.0873 42.1903 53.6308 40.9779 53.6308 39.3373C53.6308 37.6967 53.0873 36.4842 52.2789 35.6847C51.4685 34.8832 50.2314 34.3385 48.5538 34.3385H42.4109L42.4108 44.3361Z" fill="#292929"/>
</svg>
