<svg width="180" height="149" viewBox="0 0 180 149" fill="none" xmlns="http://www.w3.org/2000/svg">
<path d="M28.9938 1.59536C50.9123 34.6945 89.4109 77.4483 133.59 78.3281C143.974 78.5349 178.888 67.955 177.963 52.9719C176.789 33.9641 153.734 25.1972 136.788 27.1916C112.509 30.049 82.5991 49.5162 66.773 67.1924C54.1203 81.3242 48.7339 93 38.234 110.5C33.734 119 31.1544 135.995 24.7339 142.5C16.5671 150.774 45.7601 130.49 53.317 126.342C54.4639 125.366 30.4185 138.458 25.5944 146.194C23.1912 150.048 18.6002 132.167 18.0747 130.49C14.3338 118.551 8.10045 107.442 1.89964 96.6627" stroke="white" stroke-width="3" stroke-linecap="round"/>
</svg>
