<svg width="155" height="158" viewBox="0 0 155 158" fill="none" xmlns="http://www.w3.org/2000/svg">
<path d="M2.15416 97.6953C12.1361 103.211 40.4317 119.274 51.8872 106.147C56.6538 100.685 60.1036 90.4878 58.3007 83.1149C54.4291 67.2816 29.399 64.4863 35.7294 85.0553C39.2796 96.5908 53.8623 101.067 64.2322 104.095C79.5182 108.558 92.2995 103.736 105.743 96.6288C112.57 93.0192 140.26 69.228 137.945 68.7437" stroke="#FF6C6C" stroke-width="3" stroke-linecap="round"/>
<path d="M149.273 61.3354C146.875 60.9202 128.407 58.3339 130.702 58.3543C133.705 58.381 136.801 58.7191 139.789 58.3726C143.324 57.9626 146.907 58.45 150.37 57.6533C153.409 56.9542 146.44 71.8057 144.655 74.0592" stroke="#FF6C6C" stroke-width="3" stroke-linecap="round"/>
</svg>
