<svg width="200" height="80" viewBox="0 0 200 80" fill="none" xmlns="http://www.w3.org/2000/svg">
<path fill-rule="evenodd" clip-rule="evenodd" d="M195 3.80952H5V76.1905H195V3.80952ZM0 0V80H200V0H0Z" fill="white"/>
<path d="M47.5987 51.6117L48.1354 43.3316L47.5987 28.7817L53.9493 27.9298L53.3232 42.7523L53.6363 48.2724L62.8045 47.7272L62.3125 51.6117H47.5987Z" fill="white"/>
<path d="M79.1632 27.7595C82.6814 27.7595 85.5735 28.7817 87.8395 30.8262C90.1353 32.8707 91.2831 35.4717 91.2831 38.6293C91.2831 42.6273 89.9265 45.8531 87.2134 48.3064C84.5002 50.7598 80.9373 51.9865 76.5246 51.9865C73.0958 51.9865 70.2187 50.9415 67.8931 48.8516C65.5675 46.739 64.4047 44.138 64.4047 41.0486C64.4047 37.1868 65.7911 34.0065 68.5639 31.5077C71.3367 29.0089 74.8699 27.7595 79.1632 27.7595ZM85.2008 40.5374C85.2008 34.7902 82.7262 31.9166 77.7768 31.9166C75.5109 31.9166 73.722 32.564 72.4101 33.8588C71.128 35.1309 70.487 37.0505 70.487 39.6174C70.487 42.1617 71.1728 44.2629 72.5443 45.9212C73.9456 47.5568 75.7792 48.3746 78.0452 48.3746C80.341 48.3746 82.1001 47.6817 83.3225 46.296C84.5747 44.8876 85.2008 42.9681 85.2008 40.5374Z" fill="white"/>
<path d="M106.987 51.9865C103.081 51.9865 99.9355 50.987 97.5503 48.9879C95.1651 46.9889 93.9725 44.3424 93.9725 41.0486C93.9725 37.3004 95.4632 34.1428 98.4447 31.5758C101.426 29.0089 105.094 27.7254 109.447 27.7254C111.176 27.7254 112.771 27.8503 114.232 28.1002C115.723 28.3274 116.781 28.5659 117.407 28.8158L118.302 29.1906L115.708 33.927C114.813 33.4726 113.606 33.0524 112.085 32.6662C110.565 32.2573 109.223 32.0529 108.06 32.0529C105.645 32.0529 103.707 32.7003 102.246 33.9951C100.785 35.29 100.055 37.005 100.055 39.1404C100.055 42.0254 100.741 44.2743 102.112 45.8871C103.513 47.5 105.451 48.3064 107.926 48.3064C109.536 48.3064 111.057 48.1361 112.488 47.7953V42.5138H106.718L107.166 39.0722H117.899L117.497 44.6264L117.81 50.5213C113.427 51.4981 109.819 51.9865 106.987 51.9865Z" fill="white"/>
<path d="M137.163 27.7595C140.681 27.7595 143.573 28.7817 145.839 30.8262C148.135 32.8707 149.283 35.4717 149.283 38.6293C149.283 42.6273 147.926 45.8531 145.213 48.3064C142.5 50.7598 138.937 51.9865 134.525 51.9865C131.096 51.9865 128.219 50.9415 125.893 48.8516C123.567 46.739 122.405 44.138 122.405 41.0486C122.405 37.1868 123.791 34.0065 126.564 31.5077C129.337 29.0089 132.87 27.7595 137.163 27.7595ZM143.201 40.5374C143.201 34.7902 140.726 31.9166 135.777 31.9166C133.511 31.9166 131.722 32.564 130.41 33.8588C129.128 35.1309 128.487 37.0505 128.487 39.6174C128.487 42.1617 129.173 44.2629 130.544 45.9212C131.946 47.5568 133.779 48.3746 136.045 48.3746C138.341 48.3746 140.1 47.6817 141.322 46.296C142.575 44.8876 143.201 42.9681 143.201 40.5374Z" fill="white"/>
</svg>
