<svg width="117" height="33" viewBox="0 0 117 33" fill="none" xmlns="http://www.w3.org/2000/svg">
<path d="M0 9.68329H2.23614V22.8318H0V22.8765H2.23614V32H17.8891H18.2917V27.5277H6.70843V22.8765H35.7783V22.8318H6.70843V9.68329H35.7783V9.63857H6.70843V0.693994H2.23614V9.63857H0V9.68329ZM17.6481 9.68329C16.7536 11.6958 16.3064 13.932 16.3064 16.347C16.3064 18.6726 16.7536 20.864 17.5586 22.8318H15.6355V22.8765H17.5586C19.9737 28.7352 25.6535 32.6708 32.6302 32.6708C39.607 32.6708 45.2868 28.7352 47.7018 22.8765H51.4138V22.8318H47.7018C48.5068 20.864 48.9541 18.6726 48.9541 16.347C48.9541 13.932 48.5068 11.6958 47.6124 9.68329H51.4138V9.63857H47.6124C45.1526 3.86932 39.5175 0.023152 32.6302 0.023152C25.7429 0.023152 20.1078 3.86932 17.6481 9.63857H15.6355V9.68329H17.6481ZM42.5587 9.68329C43.7662 11.5617 44.4818 13.8425 44.4818 16.347C44.4818 18.762 43.8109 20.9982 42.6481 22.8318H22.6123C21.4495 20.9982 20.7787 18.762 20.7787 16.347C20.7787 13.8425 21.4942 11.5617 22.7017 9.68329H42.5587ZM42.6481 22.8765C40.5462 26.1413 36.9236 28.1986 32.6302 28.1986C28.3368 28.1986 24.7143 26.1413 22.6123 22.8765H42.6481ZM22.7465 9.63857C24.8484 6.50797 28.4263 4.49544 32.6302 4.49544C36.8342 4.49544 40.412 6.50797 42.514 9.63857H22.7465ZM50.4879 22.8765H52.411C54.826 28.7352 60.5058 32.6708 67.4826 32.6708C71.9996 32.6708 75.98 31.0161 78.8869 28.2433V22.8765H86.2662V22.8318H78.8869V16.3917H63.0103V20.864H78.4844C78.2161 21.5796 77.903 22.2057 77.5005 22.8318H57.4647C56.3019 20.9982 55.631 18.762 55.631 16.347C55.631 13.8425 56.3466 11.5617 57.5541 9.68329H77.4111C78.0372 10.6672 78.5739 11.7853 78.8869 12.9928V9.68329H86.2662V9.63857H78.8869V4.45071C75.98 1.6779 71.9996 0.023152 67.4826 0.023152C60.5953 0.023152 54.9602 3.86932 52.5004 9.63857H50.4879V9.68329H52.5004C51.606 11.6958 51.1588 13.932 51.1588 16.347C51.1588 18.6726 51.606 20.864 52.411 22.8318H50.4879V22.8765ZM77.4558 22.8765C75.3986 26.1413 71.776 28.1986 67.4826 28.1986C63.1892 28.1986 59.5667 26.1413 57.4647 22.8765H77.4558ZM57.5989 9.63857C59.7008 6.50797 63.2787 4.49544 67.4826 4.49544C71.7313 4.49544 75.2644 6.50797 77.3664 9.63857H57.5989ZM82.6796 9.68329C81.7852 11.6958 81.338 13.932 81.338 16.347C81.338 18.6726 81.7852 20.864 82.5902 22.8318H80.6671V22.8765H82.5902C85.0052 28.7352 90.685 32.6708 97.6618 32.6708C104.639 32.6708 110.318 28.7352 112.733 22.8765H116.445V22.8318H112.733C113.538 20.864 113.986 18.6726 113.986 16.347C113.986 13.932 113.538 11.6958 112.644 9.68329H116.445V9.63857H112.644C110.184 3.86932 104.549 0.023152 97.6618 0.023152C90.7745 0.023152 85.1394 3.86932 82.6796 9.63857H80.6671V9.68329H82.6796ZM107.59 9.68329C108.798 11.5617 109.513 13.8425 109.513 16.347C109.513 18.762 108.843 20.9982 107.68 22.8318H87.6439C86.4811 20.9982 85.8102 18.762 85.8102 16.347C85.8102 13.8425 86.5258 11.5617 87.7333 9.68329H107.59ZM107.68 22.8765C105.578 26.1413 101.955 28.1986 97.6618 28.1986C93.3684 28.1986 89.7459 26.1413 87.6439 22.8765H107.68ZM87.778 9.63857C89.88 6.50797 93.4579 4.49544 97.6618 4.49544C101.866 4.49544 105.444 6.50797 107.546 9.63857H87.778Z" fill="#292929"/>
</svg>
