<svg width="117" height="34" viewBox="0 0 117 34" fill="none" xmlns="http://www.w3.org/2000/svg">
<path d="M0 10.4611H2.23614V23.6096H0V23.6543H2.23614V32.7778H17.8891H18.2917V28.3055H6.70843V23.6543H35.7783V23.6096H6.70843V10.4611H35.7783V10.4163H6.70843V1.47177H2.23614V10.4163H0V10.4611ZM17.6481 10.4611C16.7536 12.4736 16.3064 14.7097 16.3064 17.1248C16.3064 19.4504 16.7536 21.6418 17.5586 23.6096H15.6355V23.6543H17.5586C19.9737 29.513 25.6535 33.4486 32.6302 33.4486C39.607 33.4486 45.2868 29.513 47.7018 23.6543H51.4138V23.6096H47.7018C48.5068 21.6418 48.9541 19.4504 48.9541 17.1248C48.9541 14.7097 48.5068 12.4736 47.6124 10.4611H51.4138V10.4163H47.6124C45.1526 4.64709 39.5175 0.800923 32.6302 0.800923C25.7429 0.800923 20.1078 4.64709 17.6481 10.4163H15.6355V10.4611H17.6481ZM42.5587 10.4611C43.7662 12.3394 44.4818 14.6203 44.4818 17.1248C44.4818 19.5398 43.8109 21.7759 42.6481 23.6096H22.6123C21.4495 21.7759 20.7787 19.5398 20.7787 17.1248C20.7787 14.6203 21.4942 12.3394 22.7017 10.4611H42.5587ZM42.6481 23.6543C40.5462 26.9191 36.9236 28.9763 32.6302 28.9763C28.3368 28.9763 24.7143 26.9191 22.6123 23.6543H42.6481ZM22.7465 10.4163C24.8484 7.28574 28.4263 5.27321 32.6302 5.27321C36.8342 5.27321 40.412 7.28574 42.514 10.4163H22.7465ZM50.4879 23.6543H52.411C54.826 29.513 60.5058 33.4486 67.4826 33.4486C71.9996 33.4486 75.98 31.7939 78.8869 29.0211V23.6543H86.2662V23.6096H78.8869V17.1695H63.0103V21.6418H78.4844C78.2161 22.3573 77.903 22.9835 77.5005 23.6096H57.4647C56.3019 21.7759 55.631 19.5398 55.631 17.1248C55.631 14.6203 56.3466 12.3394 57.5541 10.4611H77.4111C78.0372 11.445 78.5739 12.563 78.8869 13.7706V10.4611H86.2662V10.4163H78.8869V5.22849C75.98 2.45567 71.9996 0.800923 67.4826 0.800923C60.5953 0.800923 54.9602 4.64709 52.5004 10.4163H50.4879V10.4611H52.5004C51.606 12.4736 51.1588 14.7097 51.1588 17.1248C51.1588 19.4504 51.606 21.6418 52.411 23.6096H50.4879V23.6543ZM77.4558 23.6543C75.3986 26.9191 71.776 28.9763 67.4826 28.9763C63.1892 28.9763 59.5667 26.9191 57.4647 23.6543H77.4558ZM57.5989 10.4163C59.7008 7.28574 63.2787 5.27321 67.4826 5.27321C71.7313 5.27321 75.2644 7.28574 77.3664 10.4163H57.5989ZM82.6796 10.4611C81.7852 12.4736 81.338 14.7097 81.338 17.1248C81.338 19.4504 81.7852 21.6418 82.5902 23.6096H80.6671V23.6543H82.5902C85.0052 29.513 90.685 33.4486 97.6618 33.4486C104.639 33.4486 110.318 29.513 112.733 23.6543H116.445V23.6096H112.733C113.538 21.6418 113.986 19.4504 113.986 17.1248C113.986 14.7097 113.538 12.4736 112.644 10.4611H116.445V10.4163H112.644C110.184 4.64709 104.549 0.800923 97.6618 0.800923C90.7745 0.800923 85.1394 4.64709 82.6796 10.4163H80.6671V10.4611H82.6796ZM107.59 10.4611C108.798 12.3394 109.513 14.6203 109.513 17.1248C109.513 19.5398 108.843 21.7759 107.68 23.6096H87.6439C86.4811 21.7759 85.8102 19.5398 85.8102 17.1248C85.8102 14.6203 86.5258 12.3394 87.7333 10.4611H107.59ZM107.68 23.6543C105.578 26.9191 101.955 28.9763 97.6618 28.9763C93.3684 28.9763 89.7459 26.9191 87.6439 23.6543H107.68ZM87.778 10.4163C89.88 7.28574 93.4579 5.27321 97.6618 5.27321C101.866 5.27321 105.444 7.28574 107.546 10.4163H87.778Z" fill="white"/>
</svg>
