<svg width="55" height="17" viewBox="0 0 55 17" fill="none" xmlns="http://www.w3.org/2000/svg">
<path d="M0.319602 16L2.13778 5.09091H5.0142L4.7017 7.01562H4.82244C5.15388 6.37642 5.61553 5.87216 6.20739 5.50284C6.80398 5.13352 7.47396 4.94886 8.21733 4.94886C8.95597 4.94886 9.55729 5.13589 10.0213 5.50994C10.4901 5.87926 10.7599 6.38116 10.831 7.01562H10.9446C11.2666 6.39062 11.7519 5.8911 12.4006 5.51705C13.0492 5.13826 13.7737 4.94886 14.5739 4.94886C15.5824 4.94886 16.3542 5.2732 16.8892 5.92188C17.4242 6.57055 17.5923 7.48437 17.3935 8.66335L16.1719 16H13.1463L14.2827 9.25994C14.3726 8.64915 14.2827 8.1946 14.0128 7.89631C13.7429 7.59328 13.3665 7.44176 12.8835 7.44176C12.3343 7.44176 11.8774 7.61695 11.5128 7.96733C11.1482 8.31297 10.9233 8.76989 10.8381 9.33807L9.70881 16H6.77557L7.92614 9.19602C8.00663 8.65625 7.91903 8.23011 7.66335 7.91761C7.41241 7.60038 7.03598 7.44176 6.53409 7.44176C6.20265 7.44176 5.88778 7.52699 5.58949 7.69744C5.29593 7.86316 5.04735 8.09754 4.84375 8.40057C4.64015 8.69886 4.50758 9.04924 4.44602 9.4517L3.33807 16H0.319602ZM25.7163 11.4119V5.09091H28.2874V16H25.7945V14.0611H25.6808C25.4346 14.6719 25.0298 15.1714 24.4663 15.5597C23.9076 15.9479 23.2187 16.142 22.3996 16.142C21.6846 16.142 21.0525 15.9834 20.5033 15.6662C19.9588 15.3442 19.5326 14.8778 19.2249 14.267C18.9171 13.6515 18.7632 12.9081 18.7632 12.0369V5.09091H21.3342V11.6392C21.3342 12.3305 21.5236 12.8797 21.9024 13.2869C22.2812 13.6941 22.7784 13.8977 23.3939 13.8977C23.7727 13.8977 24.1396 13.8054 24.4947 13.6207C24.8499 13.4361 25.1411 13.1615 25.3683 12.7969C25.6003 12.4276 25.7163 11.9659 25.7163 11.4119ZM29.9891 16V14.3665L35.6141 7.31392V7.22159H30.1738V5.09091H38.7604V6.84517L33.4053 13.777V13.8693H38.9451V16H29.9891ZM40.5616 16V5.09091H43.1327V16H40.5616ZM41.8543 3.54261C41.4471 3.54261 41.0967 3.40767 40.8031 3.13778C40.5096 2.86316 40.3628 2.53409 40.3628 2.15057C40.3628 1.76231 40.5096 1.43324 40.8031 1.16335C41.0967 0.88873 41.4471 0.75142 41.8543 0.75142C42.2662 0.75142 42.6166 0.88873 42.9054 1.16335C43.199 1.43324 43.3457 1.76231 43.3457 2.15057C43.3457 2.53409 43.199 2.86316 42.9054 3.13778C42.6166 3.40767 42.2662 3.54261 41.8543 3.54261ZM49.735 16.2131C48.646 16.2131 47.7109 15.974 46.9296 15.4957C46.1531 15.0175 45.5541 14.357 45.1327 13.5142C44.7161 12.6667 44.5077 11.6913 44.5077 10.5881C44.5077 9.48011 44.7208 8.50237 45.1469 7.65483C45.5731 6.80256 46.1744 6.13968 46.9509 5.66619C47.7322 5.18797 48.6555 4.94886 49.7208 4.94886C50.6062 4.94886 51.3898 5.11222 52.0717 5.43892C52.7582 5.76089 53.3051 6.2178 53.7123 6.80966C54.1195 7.39678 54.3515 8.08333 54.4083 8.86932H51.9509C51.8515 8.34375 51.6147 7.90578 51.2407 7.5554C50.8714 7.20028 50.3766 7.02273 49.7563 7.02273C49.2308 7.02273 48.7691 7.16477 48.3714 7.44886C47.9737 7.72822 47.6635 8.13068 47.441 8.65625C47.2232 9.18182 47.1143 9.81155 47.1143 10.5455C47.1143 11.2888 47.2232 11.928 47.441 12.4631C47.6588 12.9934 47.9642 13.4029 48.3572 13.6918C48.7549 13.9759 49.2213 14.1179 49.7563 14.1179C50.1351 14.1179 50.4737 14.0469 50.7719 13.9048C51.075 13.758 51.3283 13.5473 51.5319 13.2727C51.7355 12.9981 51.8752 12.6643 51.9509 12.2713H54.4083C54.3468 13.0431 54.1195 13.7273 53.7265 14.3239C53.3335 14.9157 52.7985 15.3797 52.1214 15.7159C51.4443 16.0473 50.6488 16.2131 49.735 16.2131Z" fill="#2A2A2D"/>
</svg>
