<svg width="181" height="151" viewBox="0 0 181 151" fill="none" xmlns="http://www.w3.org/2000/svg">
<path d="M31.5608 2.37432C52.5092 36.4417 89.751 80.7615 133.889 83.017C144.263 83.5471 179.472 73.9558 178.983 58.813C178.363 39.6026 155.571 30.0451 138.572 31.5322C114.22 33.6628 83.7538 52.3741 67.4193 69.7149C54.3602 83.5786 48.6362 95.1897 37.631 112.518C32.8854 120.953 29.8126 138.016 23.2052 144.38C14.8007 152.473 44.5733 132.915 52.2481 128.965C53.423 128.016 29.0054 140.478 23.958 148.132C21.4435 151.946 17.3742 133.766 16.8976 132.058C13.5052 119.899 7.59704 108.499 1.71184 97.4342" stroke="#FF6C6C" stroke-width="3" stroke-linecap="round"/>
</svg>
